HIERARCHY
ROOT Hips
{
	OFFSET 0.0000 0.0000 0.0000
	CHANNELS 6 Xposition Yposition Zposition Zrotation Xrotation Yrotation
	JOINT Ab
	{
		OFFSET -0.0000 8.0846 -0.0000
		CHANNELS 3 Zrotation Xrotation Yrotation
		JOINT Chest
		{
			OFFSET -0.0000 25.0068 -0.0000
			CHANNELS 3 Zrotation Xrotation Yrotation
			JOINT Neck
			{
				OFFSET -0.0000 25.0068 0.0000
				CHANNELS 3 Zrotation Xrotation Yrotation
				JOINT Head
				{
					OFFSET -0.0000 10.7556 0.0000
					CHANNELS 3 Zrotation Xrotation Yrotation
					End Site
					{
						OFFSET -0.0000 16.6222 0.0000
					}
				}
			}
			JOINT LeftCollar
			{
				OFFSET -0.0000 25.0068 0.0000
				CHANNELS 3 Zrotation Xrotation Yrotation
				JOINT LeftShoulder
				{
					OFFSET 19.5556 -0.0000 0.0000
					CHANNELS 3 Zrotation Xrotation Yrotation
					JOINT LeftElbow
					{
						OFFSET 27.1828 0.0000 0.0000
						CHANNELS 3 Zrotation Xrotation Yrotation
						JOINT LeftWrist
						{
							OFFSET 23.3157 0.0000 0.0000
							CHANNELS 3 Zrotation Xrotation Yrotation
							End Site
							{
								OFFSET 0.0000 -14.6667 0.0000
							}
						}
					}
				}
			}
			JOINT RightCollar
			{
				OFFSET -0.0000 25.0068 0.0000
				CHANNELS 3 Zrotation Xrotation Yrotation
				JOINT RightShoulder
				{
					OFFSET -19.5556 0.0000 0.0000
					CHANNELS 3 Zrotation Xrotation Yrotation
					JOINT RightElbow
					{
						OFFSET -27.1828 0.0000 0.0000
						CHANNELS 3 Zrotation Xrotation Yrotation
						JOINT RightWrist
						{
							OFFSET -23.3157 0.0000 0.0000
							CHANNELS 3 Zrotation Xrotation Yrotation
							End Site
							{
								OFFSET -0.0000 -14.6667 0.0000
							}
						}
					}
				}
			}
		}
	}
	JOINT LeftHip
	{
		OFFSET 11.7333 0.0000 0.0000
		CHANNELS 3 Zrotation Xrotation Yrotation
		JOINT LeftKnee
		{
			OFFSET -0.0000 -40.8688 0.0000
			CHANNELS 3 Zrotation Xrotation Yrotation
			JOINT LeftAnkle
			{
				OFFSET -0.0000 -44.4337 0.0000
				CHANNELS 3 Zrotation Xrotation Yrotation
				End Site
				{
					OFFSET -0.0000 -4.8889 16.6222
				}
			}
		}
	}
	JOINT RightHip
	{
		OFFSET -11.7333 0.0000 0.0000
		CHANNELS 3 Zrotation Xrotation Yrotation
		JOINT RightKnee
		{
			OFFSET -0.0000 -40.8688 0.0000
			CHANNELS 3 Zrotation Xrotation Yrotation
			JOINT RightAnkle
			{
				OFFSET -0.0000 -44.4337 0.0000
				CHANNELS 3 Zrotation Xrotation Yrotation
				End Site
				{
					OFFSET -0.0000 -4.8889 16.6222
				}
			}
		}
	}
}
MOTION
Frames: 15
Frame Time: 0.010000
-4.2001 88.5961 190.6198 2.2692 0.4273 177.0582 1.1417 359.3348 358.1622 359.8054 10.9025 358.1756 0.4946 342.4287 0.9116 2.9948 8.5046 0.6113 338.2987 358.5729 7.4551 301.2342 30.4293 356.0072 14.2473 355.0036 321.6541 84.4574 1.7192 340.5386 21.9491 358.9272 354.4515 62.0964 44.7481 4.9866 337.2720 354.1636 28.2023 274.6384 353.1455 17.3205 3.1189 358.8663 357.1829 359.3061 10.7623 356.5997 356.0922 350.9135 22.2053 0.5650 352.5928 0.4115 358.9869 19.6991 8.4782 357.4595 344.0411 336.8798 
-4.2043 88.5985 190.6021 2.2707 0.4474 177.0562 1.1229 359.3714 358.1669 359.8076 10.8878 358.1792 0.4232 342.3938 0.8864 3.0502 8.5834 0.5882 338.2944 358.5760 7.4902 301.2380 30.4243 356.0055 14.2937 355.0100 321.7017 84.3423 1.6685 340.5296 21.9552 358.9346 354.4861 62.0985 44.7813 4.9728 337.2254 354.1869 28.2177 274.6232 353.2197 17.3687 3.1168 358.9697 357.1249 359.3138 10.6215 356.5898 356.0781 350.9542 22.2429 0.5612 352.6354 0.4330 359.0006 19.6784 8.4050 357.4436 344.0553 336.9297 
-4.2124 88.5999 190.5954 2.2664 0.4264 177.0682 1.1080 359.3755 358.1618 359.8080 10.8727 358.1750 0.3282 342.3226 0.8274 3.1047 8.7040 0.5354 338.3053 358.5745 7.4625 301.1956 30.2863 356.0531 14.2427 355.0277 321.7104 84.3902 1.6216 340.4348 21.9625 358.9078 354.4923 62.0778 44.8292 4.9782 337.1718 354.1801 28.2081 274.6335 353.2036 17.3096 3.1136 358.8854 356.9920 359.2614 10.7529 356.7404 356.1079 350.8853 22.2330 0.5447 352.6215 0.4464 359.0160 19.6771 8.3653 357.4697 344.0318 336.9494 
-4.2211 88.6012 190.5843 2.2590 0.4130 177.0756 1.0833 359.3785 358.1620 359.8104 10.8722 358.1753 0.2415 342.2493 0.7823 3.1596 8.8184 0.4973 338.3118 358.5719 7.4971 301.1840 30.3311 356.0462 14.3123 355.0057 321.7398 84.3322 1.6170 340.4652 21.9702 358.9336 354.5188 62.0373 44.8056 5.0011 337.2440 354.2150 28.2036 274.6133 353.1958 17.3276 3.1101 358.8652 356.9517 359.2435 10.7762 356.7017 356.1231 350.8646 22.2901 0.5249 352.6174 0.4607 359.0243 19.6779 8.4019 357.4690 344.0024 336.9173 
-4.2331 88.6025 190.5745 2.2501 0.3952 177.0961 1.0505 359.3768 358.1648 359.8221 10.8755 358.1767 0.1160 342.1571 0.6997 3.2588 8.9651 0.4203 338.3194 358.5710 7.4950 301.1703 30.2858 356.0593 14.2880 355.0258 321.7505 84.4207 1.6125 340.4638 21.9654 358.9361 354.5280 62.0148 44.8160 5.0343 337.2118 354.2070 28.2127 274.6250 353.2020 17.3390 3.0947 358.8243 356.9433 359.2323 10.8269 356.7077 356.1402 350.8288 22.2823 0.4925 352.6167 0.4584 359.0524 19.6628 8.3696 357.4370 343.9966 336.9383 
-4.2489 88.6030 190.5671 2.2419 0.3710 177.1221 1.0269 359.3748 358.1683 359.8230 10.8747 358.1807 359.9806 342.0616 0.6068 3.3774 9.1133 0.3340 338.3259 358.5650 7.5017 301.1678 30.3104 356.0535 14.3143 355.0134 321.7877 84.4326 1.5813 340.4831 21.9617 358.9355 354.5245 61.9849 44.8410 5.0758 337.2078 354.2006 28.2042 274.6214 353.2102 17.3545 3.0815 358.7684 356.9159 359.2325 10.8806 356.6418 356.1479 350.7855 22.3172 0.4576 352.6070 0.4371 359.0756 19.6496 8.3258 357.4263 343.9969 336.9894 
-4.2691 88.6038 190.5536 2.2232 0.3661 177.1415 0.9932 359.3909 358.1786 359.8223 10.8687 358.1910 359.8632 341.9817 0.5247 3.4693 9.2438 0.2615 338.3258 358.5553 7.5098 301.1653 30.3736 356.0609 14.3724 355.0034 321.8451 84.4252 1.5201 340.5436 21.9608 358.9361 354.5248 61.9533 44.8838 5.1028 337.1874 354.2012 28.1934 274.6880 353.2081 17.3243 3.0585 358.7386 356.9196 359.2160 10.9389 356.5680 356.1836 350.7501 22.3674 0.4010 352.6272 0.4521 359.1181 19.6246 8.3215 357.4957 343.9694 337.0002 
-4.2909 88.6062 190.5412 2.2046 0.3567 177.1706 0.9630 359.4160 358.1758 359.8219 10.8333 358.1885 359.6999 341.9226 0.4296 3.6114 9.3812 0.1718 338.3185 358.5623 7.4958 301.1574 30.3696 356.1001 14.3327 355.0236 321.8963 84.6330 1.4396 340.6042 21.9639 358.9361 354.5245 61.9174 44.9144 5.1236 337.1788 354.1918 28.1884 274.7606 353.2053 17.3252 3.0373 358.6878 356.9436 359.1959 11.0227 356.4977 356.2108 350.7115 22.3872 0.3416 352.6498 0.4740 359.1707 19.5891 8.2642 357.5376 343.9415 337.0273 
-4.3196 88.6084 190.5317 2.1794 0.3384 177.2055 0.9464 359.4355 358.1606 359.7985 10.8004 358.1752 359.5380 341.8584 0.3435 3.7688 9.5121 0.0912 338.3216 358.5587 7.5001 301.1398 30.3463 356.1227 14.3396 355.0114 321.9072 84.6504 1.3999 340.6023 21.9697 358.9503 354.5384 61.8635 44.9098 5.1632 337.2187 354.2035 28.1910 274.8058 353.1853 17.3892 3.0021 358.6146 356.9653 359.1810 11.1207 356.4500 356.2447 350.6699 22.3813 0.2661 352.6676 0.5154 359.2385 19.5421 8.1708 357.6203 343.8854 337.0459 
-4.3526 88.6118 190.5209 2.1513 0.3185 177.2491 0.9298 359.4542 358.1434 359.7672 10.7647 358.1612 359.3623 341.7854 0.2418 3.9348 9.6593 0.0022 338.3275 358.5576 7.5028 301.1154 30.2889 356.1551 14.3352 355.0323 321.9424 84.6241 1.3446 340.5592 21.9719 358.9503 354.5626 61.8196 44.9340 5.1897 337.2265 354.1885 28.1990 274.8561 353.1756 17.4085 2.9650 358.5419 356.9353 359.1523 11.2171 356.3977 356.2694 350.6216 22.4314 0.1840 352.6877 0.5522 359.3001 19.4951 8.1099 357.7355 343.7856 337.0132 
-4.3908 88.6151 190.5002 2.1222 0.3178 177.2927 0.9169 359.4743 358.1304 359.7283 10.7501 358.1513 359.1142 341.7473 0.0962 4.2055 9.7350 359.8875 338.3279 358.5695 7.5225 301.1260 30.3456 356.1510 14.4424 354.9807 321.9654 84.2926 1.4035 340.5077 21.9692 358.9479 354.5842 61.7784 44.9693 5.2238 337.2330 354.1980 28.2027 274.9223 353.1793 17.4635 2.9225 358.5566 357.0002 359.1511 11.1965 356.2570 356.2809 350.6104 22.4548 0.0995 352.7395 0.6070 359.3674 19.4323 8.0025 357.5414 343.8727 337.1175 
-4.4360 88.6188 190.4899 2.0870 0.2781 177.3617 0.9014 359.4770 358.1010 359.7030 10.7074 358.1259 358.8444 341.6046 359.9615 4.4577 10.0014 359.7342 338.3248 358.5616 7.5392 301.1140 30.4839 356.1626 14.5655 354.9316 322.0337 84.2768 1.3488 340.6272 21.9669 358.9478 354.5915 61.7143 45.0078 5.2629 337.2635 354.1984 28.2083 274.9822 353.1423 17.5193 2.8717 358.4496 356.9529 359.1224 11.3018 356.2455 356.3277 350.5650 22.4536 0.0005 352.7548 0.6736 359.4427 19.3665 7.9200 357.5683 343.8279 337.1040 
-4.4832 88.6228 190.4800 2.0559 0.2335 177.4238 0.8705 359.4727 358.0925 359.6918 10.6707 358.1177 358.6127 341.4781 359.8200 4.6765 10.2377 359.6167 338.3074 358.5614 7.5963 301.1304 30.6731 356.1160 14.6908 354.9015 322.1639 84.2192 1.2472 340.7388 21.9616 358.9569 354.6021 61.6106 45.0591 5.3345 337.2725 354.2092 28.2122 275.0987 353.0974 17.4572 2.8291 358.3425 356.9216 359.0858 11.4055 356.2011 356.3757 350.5270 22.4789 359.9197 352.7596 0.7369 359.4944 19.2996 7.8144 357.5365 343.8160 337.1130 
-4.5380 88.6272 190.4620 2.0255 0.1949 177.4779 0.8220 359.4605 358.1099 359.7011 10.6647 358.1346 358.2954 341.2452 359.6198 4.9612 10.6359 359.4232 338.2981 358.5514 7.5278 301.0802 30.4643 356.1910 14.5970 354.9720 322.1209 84.3366 1.2407 340.6255 21.9466 358.9376 354.5736 61.5036 45.1084 5.4221 337.1580 354.1636 28.2424 275.1706 353.2765 16.9758 2.7760 358.2181 357.0295 359.0850 11.5706 356.0404 356.4329 350.4532 22.4689 359.8336 352.7872 0.8298 359.5586 19.2142 7.6940 357.5473 343.8176 337.1487 
-4.6012 88.6307 190.4413 1.9905 0.1611 177.5374 0.7990 359.4564 358.1068 359.6777 10.6468 358.1340 357.9754 341.0708 359.4266 5.2904 10.9532 359.2421 338.2950 358.5666 7.4803 301.0522 30.3831 356.2304 14.5242 355.0144 322.1493 84.4252 1.1761 340.5592 21.9524 358.9285 354.5327 61.3696 45.1704 5.5182 337.2438 354.2147 28.2355 275.1570 353.0448 17.2760 2.7063 358.1090 356.9961 359.0671 11.7112 356.0204 356.5788 350.4009 22.4923 359.7424 352.8085 0.8846 359.4792 19.1540 8.3773 357.6245 344.0734 336.8521 
